<?xml version="1.0" encoding="UTF-8"?>
<svg width="234px" height="182px" viewBox="0 0 234 182" version="1.1" xmlns="http://www.w3.org/2000/svg" xmlns:xlink="http://www.w3.org/1999/xlink">
    <!-- Generator: Sketch 49.3 (51167) - http://www.bohemiancoding.com/sketch -->
    <title>获取头像信息授权@2x</title>
    <desc>Created with Sketch.</desc>
    <defs></defs>
    <g id="获取头像信息授权" stroke="none" stroke-width="1" fill="none" fill-rule="evenodd">
        <g id="Group" transform="translate(36.000000, 18.000000)">
            <g id="Page-1" transform="translate(82.000000, 35.000000)">
                <path d="M0.694,32.2979095 C0.694,27.2083035 0.694,20.3394003 0.694,11.6912 C0.694,5.6422 5.644,0.6932 11.693,0.6932 L79.294,0.6932 C85.344,0.6932 90.294,5.6422 90.294,11.6912 L90.294,58.6152 C90.294,64.6662 85.344,69.6152 79.294,69.6152 C76.2692936,69.6152 71.9175501,69.6152 66.2387695,69.6152 M56.484375,69.6152 C39.8157931,69.6152 26.5915092,69.6152 16.8115234,69.6152" id="Fill-1" stroke="#C8C8C8" stroke-width="2"></path>
                <path d="M7.5863,39.5126953 C7.5863,35.5101471 7.5863,26.9778154 7.5863,13.9157 C7.5863,10.4337 10.4343,7.5837 13.9163,7.5837 L77.0713,7.5837 C80.5523,7.5837 83.4013,10.4337 83.4013,13.9157 L83.4013,56.3927 C83.4013,59.8747 80.5523,62.7227 77.0713,62.7227 C73.3538487,62.7227 69.7965533,62.7227 66.3994141,62.7227 M56.9306641,62.7227 C37.6975278,62.7227 24.6884132,62.7227 17.9033203,62.7227 C17.503318,62.7227 17.1089495,62.7227 16.7202148,62.7227" id="Fill-6" stroke="#C8C8C8" stroke-width="2"></path>
                <path d="M57,56.7521292 L55.7101524,57.0625365 C54.6362427,57.3209773 53.5561591,56.6599092 53.2977182,55.5859995 C53.2730446,55.483472 53.2565185,55.3791537 53.2482947,55.2740202 L53.0191,52.344 L50.3046297,51.2217297 C49.2838615,50.7997035 48.7984853,49.6300875 49.2205115,48.6093194 C49.2608325,48.5117938 49.3088092,48.4176127 49.3639923,48.327658 L50.9011,45.822 L49.3644165,43.3181458 C48.7866466,42.3767343 49.0814364,41.1451944 50.0228479,40.5674244 C50.1128047,40.5122155 50.2069908,40.4642142 50.3045234,40.4238703 L53.0191,39.301 L53.2482924,36.370453 C53.3344156,35.2692461 54.2969368,34.4463582 55.3981437,34.5324815 C55.5034096,34.5407141 55.6078583,34.5572699 55.7105103,34.5819935 L58.5671,35.27 L60.4744651,33.033894 C61.1912931,32.1935182 62.4536561,32.0933629 63.2940319,32.8101909 C63.3743895,32.8787347 63.4491911,32.9535364 63.5177349,33.033894 L65.4251,35.27 L68.2810472,34.5820143 C69.3548979,34.3233281 70.4351324,34.9841496 70.6938185,36.0580002 C70.7185241,36.1605574 70.7350769,36.2649085 70.7433219,36.3700768 L70.9731,39.301 L73.6876766,40.4238703 C74.7083709,40.8460752 75.1935424,42.015776 74.7713376,43.0364703 C74.7309937,43.134003 74.6829924,43.228189 74.6277835,43.3181458 L73.0911,45.822 L74.6282077,48.327658 C75.2057912,49.269184 74.9107576,50.5006655 73.9692317,51.078249 C73.8792771,51.1334321 73.7850959,51.1814088 73.6875703,51.2217297 L70.9731,52.344 L70.7433195,55.2743965 C70.6569722,56.3755858 69.6942836,57.1982778 68.5930943,57.1119305 C68.4880585,57.1036944 68.3838378,57.0871713 68.2814051,57.0625157 L66.365,56.6012349 L66.365,80.86 L62.912,77.211 C62.593,76.875 62.148,76.682 61.682,76.682 C61.217,76.682 60.772,76.875 60.452,77.211 L57,80.86 L57,56.7521292 Z" id="Combined-Shape" stroke="#C8C8C8" stroke-width="2"></path>
                <path d="M25.2821,17.5525 C24.3481,17.5525 23.5891,17.1037253 23.5891,16.5527952 C23.5891,16.0000937 24.3481,15.5525 25.2821,15.5525 L65.7051,15.5525 C66.6401,15.5525 67.3981,16.0000937 67.3981,16.5527952 C67.3981,17.1037253 66.6401,17.5525 65.7051,17.5525 L25.2821,17.5525 Z" id="Fill-18" fill="#C8C8C8"></path>
                <path d="M73.0635,26.0622 L17.9245,26.0622 C16.9895,26.0622 16.2315,25.6146063 16.2315,25.0624952 C16.2315,24.5097937 16.9895,24.0622 17.9245,24.0622 L73.0635,24.0622 C73.9985,24.0622 74.7565,24.5097937 74.7565,25.0624952 C74.7565,25.6146063 73.9985,26.0622 73.0635,26.0622" id="Fill-20" fill="#C8C8C8"></path>
                <path d="M45.4932,34.572 L17.9252,34.572 C16.9892,34.572 16.2312,34.1244063 16.2312,33.5722952 C16.2312,33.0195937 16.9892,32.572 17.9252,32.572 L45.4932,32.572 C46.4282,32.572 47.1862,33.0195937 47.1862,33.5722952 C47.1862,34.1244063 46.4282,34.572 45.4932,34.572" id="Fill-22" fill="#C8C8C8"></path>
                <path d="M34.4864,45.5134 L17.9244,45.5134 C16.9894,45.5134 16.2314,45.0658063 16.2314,44.5136952 C16.2314,43.9621747 16.9894,43.5134 17.9244,43.5134 L34.4864,43.5134 C35.4214,43.5134 36.1794,43.9621747 36.1794,44.5136952 C36.1794,45.0658063 35.4214,45.5134 34.4864,45.5134" id="Fill-24" fill="#C8C8C8"></path>
                <path d="M34.4864,54.0232 L17.9244,54.0232 C16.9894,54.0232 16.2314,53.5756063 16.2314,53.0234952 C16.2314,52.4719747 16.9894,52.0232 17.9244,52.0232 L34.4864,52.0232 C35.4214,52.0232 36.1794,52.4719747 36.1794,53.0234952 C36.1794,53.5756063 35.4214,54.0232 34.4864,54.0232" id="Fill-26" fill="#C8C8C8"></path>
            </g>
            <g id="Page-1" stroke="#C8C8C8" stroke-width="2">
                <path d="M48.4970767,0 C62.5640261,0 74,11.868937 74,26.5091159 C74,41.1371402 62.5640261,53 48.4970767,53 C34.4359739,53 23,41.1371402 23,26.5091159 C23,11.868937 34.4359739,0 48.4970767,0" id="Fill-4"></path>
                <path d="M89.4623147,138 L89.4623147,138 C85.2993661,138 81.9246294,134.625263 81.9246294,130.462315 L81.9246294,96.7048263 C81.9246294,94.8050802 80.3845808,93.2650316 78.4848347,93.2650316 L78.4848347,93.2650316 C76.5850197,93.2650316 75.0448495,94.8050114 75.0446147,96.7048263 L75.0422748,115.632516 C75.0407476,127.986183 65.0256931,138 52.6720253,138 L43.7141205,138 C31.3609,138 21.3466363,127.985736 21.3466363,115.632516 L21.3466363,96.7048263 C21.3466363,94.8050802 19.8065877,93.2650316 17.9068415,93.2650316 L17.9068415,93.2650316 C16.0070953,93.2650316 14.4670468,94.8050802 14.4670468,96.7048263 L14.4670468,130.766477 C14.4670468,134.761441 11.228488,138 7.23352338,138 L7.23352338,138 C3.23907391,138 0.000932827355,134.761859 0.000932827355,130.767409 C0.000932827355,130.767099 0.000932847404,130.766788 0.000932887503,130.766477 L0.00553021665,95.1192122 C0.0331812999,76.2740988 14.7601482,61.0286139 32.9600912,61 L64.045439,61 C82.2398518,61.0286139 96.9778791,76.2740988 97,95.1192122 L97,130.462315 C97,134.625263 93.6252633,138 89.4623147,138 Z" id="Fill-9"></path>
            </g>
            <path d="M103.179366,132.982996 L111.564346,132.982996" id="Stroke-29" stroke="#C8C8C8" stroke-width="2" stroke-linecap="round" stroke-linejoin="round"></path>
            <path d="M129.763398,143.815789 L138.148378,143.815789" id="Stroke-29" stroke="#C8C8C8" stroke-width="2" stroke-linecap="round" stroke-linejoin="round"></path>
            <path d="M107.061976,143.815789 L121.316442,143.815789" id="Stroke-31" stroke="#C8C8C8" stroke-width="2" stroke-linecap="round" stroke-linejoin="round"></path>
            <path d="M122.46482,132.982996 L164.389719,132.982996" id="Stroke-33" stroke="#C8C8C8" stroke-width="2" stroke-linecap="round" stroke-linejoin="round"></path>
            <path d="M68.5530441,143.815789 L98.7389719,143.815789" id="Stroke-37" stroke="#C8C8C8" stroke-width="2" stroke-linecap="round" stroke-linejoin="round"></path>
        </g>
    </g>
</svg>