<svg xmlns="http://www.w3.org/2000/svg" viewBox="0 0 210 210"><defs><style>.cls-1,.cls-2{fill:none;}.cls-2{stroke:#c8c8c8;stroke-linecap:round;stroke-linejoin:round;stroke-width:2px;}</style></defs><title>资源 50</title><g id="图层_2" data-name="图层 2"><g id="图层_1-2" data-name="图层 1"><rect class="cls-1" width="210" height="210"/><path class="cls-2" d="M2.49,139.81a13.61,13.61,0,0,1,6.78,2.54c1.7.85,3.38,1.7,5.93-.84s6.77-2.54,10.16,0,5.09,1.7,7.62,0a7.7,7.7,0,0,1,8.48,0c2.54,1.7,5.93,3.39,10.16-.84a4.64,4.64,0,0,1,4.53-.93,4.94,4.94,0,0,1,2.25,1.78,5.51,5.51,0,0,0,.82.87c2.55,2.18,6.13.66,7.66-.87,1.69-1.7,5.93-2.54,8.47,0a5.67,5.67,0,0,0,8.48,0c2.54-2.54,6.77-1.7,8.47,0s5.93,2.54,8.48,0,6.77-2.54,8.47,0c1.7,1.7,5.09,3.39,8.48,0a6.18,6.18,0,0,1,1.93-1,7.83,7.83,0,0,1,6.93,1.44,5.17,5.17,0,0,1,.45.4c1.7,1.7,5.09,1.7,7.62-.84,1.7-2.54,7.62-1.7,8.47,0,1.7,2.54,5.94,3.39,9.32,0s7.63-.84,9.32.84,3.39,2.55,6.78,0,6.78-2.54,8.48-.84c.2.2.42.4.64.59,1.68,1.45,4.1,2.49,7.83.25q6.35-3.81,10.17,0c2.54,2.55,5.93.85,6.77,0s3.39-2.54,5.09-2.54"/><path class="cls-2" d="M28.32,141.08c-.23-.2-.46-.4-.68-.61-16.14-15-11.79-58.17,4.93-81.57a2.79,2.79,0,0,1,4.23,0c2.54,1.7,29.65,21.19,30.5,22S69,82.62,69,86c.73,2.9,1.3,5.53,1.8,7.91,1.78,8.41,2.78,13.74,7,17.09l.54.41,2.89,2C91.42,120.58,119,139.38,119,139.38"/><line class="cls-2" x1="56.28" y1="139.38" x2="77.47" y2="111.43"/><line class="cls-2" x1="59.25" y1="142.35" x2="80.43" y2="114.39"/><path class="cls-2" d="M52.5,91A6.5,6.5,0,1,1,46,84.5,6.5,6.5,0,0,1,52.5,91Z"/><line class="cls-2" x1="45.27" y1="63.99" x2="56.63" y2="49.42"/><path class="cls-2" d="M62.64,37.41,55,47.26a.7.7,0,0,0,.15,1L73.66,61.39a.72.72,0,0,0,1.13-.65l-.65-7.13a.7.7,0,0,1,.58-.76l7-1.28A.71.71,0,0,0,82,50.3l-18.39-13A.71.71,0,0,0,62.64,37.41Z"/><polyline class="cls-2" points="71.11 93.85 82.73 85.93 94.32 78.03 94.89 77.64 103.73 71.61 154.56 105.5"/><path class="cls-2" d="M94.79,78.71l16.07,10.68a6.78,6.78,0,1,1-7.51,11.29l-20.1-14"/><path class="cls-2" d="M133.5,107.5a8,8,0,1,1-8-8A8,8,0,0,1,133.5,107.5Z"/><path class="cls-2" d="M138.92,126.57a8,8,0,1,1,9.45-12.67"/><polyline class="cls-2" points="127.46 141.93 138.92 126.57 148.38 113.9 150.76 110.7 154.62 105.54 162.44 95.06 172.36 81.77 204.55 105.5 195.08 118.64 183.55 134.63 178.29 141.93"/><polyline class="cls-2" points="195.09 118.65 195.08 118.64 163.14 95.57"/><polyline class="cls-2" points="183.55 134.63 150.76 110.7 150.71 110.66"/><line class="cls-2" x1="73.5" y1="162.5" x2="82.5" y2="162.5"/><line class="cls-2" x1="95.5" y1="164.5" x2="119.5" y2="164.5"/><line class="cls-2" x1="127.5" y1="163.5" x2="172.5" y2="163.5"/><line class="cls-2" x1="184.5" y1="163.5" x2="191.5" y2="163.5"/><line class="cls-2" x1="102.5" y1="183.5" x2="134.5" y2="183.5"/><path class="cls-2" d="M71.5,34.5a2,2,0,1,1-2-2A2,2,0,0,1,71.5,34.5Z"/><line class="cls-2" x1="65.5" y1="37.88" x2="67.28" y2="36.11"/></g></g></svg>